<svg width="50" height="50" viewBox="0 0 50 50" fill="none" xmlns="http://www.w3.org/2000/svg">
    <!--    skills-->
    <g id="arrows">
    <svg width="40.000000" height="40.000000" viewBox="0 0 60 20" fill="none" xmlns="http://www.w3.org/2000/svg">
        <desc>
            Created with Pixso.
        </desc>
        <defs/>
        <path id="V" d="M17.72 16.63L11.39 34.86L5.09 16.63L0.21 16.63L8.81 41.4L14.01 41.4L22.61 16.63L17.72 16.63Z" fill="#DEDEDE" fill-opacity="1.000000" fill-rule="evenodd"/>
        <path id="V" d="M11.27 24.2L17.6 5.98L23.9 24.2L28.78 24.2L20.18 -0.57L14.98 -0.57L6.38 24.2L11.27 24.2Z" fill="#DEDEDE" fill-opacity="1.000000" fill-rule="evenodd"/>
    </svg>
    </g>
    <g id = "FW">
    <svg width="198" height="48" viewBox="0 0 198 48" fill="none" xmlns="http://www.w3.org/2000/svg">
        <path d="M7.29289 40.7071C7.68342 41.0976 8.31658 41.0976 8.70711 40.7071L15.0711 34.3431C15.4616 33.9526 15.4616 33.3195 15.0711 32.9289C14.6805 32.5384 14.0474 32.5384 13.6569 32.9289L8 38.5858L2.34315 32.9289C1.95262 32.5384 1.31946 32.5384 0.928933 32.9289C0.538409 33.3195 0.538409 33.9526 0.928933 34.3431L7.29289 40.7071ZM7 8L7 40L9 40L9 8L7 8Z" fill="#DEDEDE"/>
        <path opacity="0.7" d="M41.12 30V18.48H48.056V20.408H43.048V23.28H47.096V25.2H43.048V30H41.12ZM50.995 30V18.48H58.435V20.288H52.923V23.128H57.475V24.936H52.923V28.192H58.435V30H50.995ZM61.0544 30L64.6864 18.48H67.5104L71.1424 30H69.1584L65.8624 19.664H66.2944L63.0384 30H61.0544ZM63.0784 27.504V25.704H69.1264V27.504H63.0784ZM75.9036 30V20.288H72.1756V18.48H81.5596V20.288H77.8316V30H75.9036ZM88.9788 30.24C88.0614 30.24 87.2534 30.0533 86.5548 29.68C85.8614 29.3067 85.3174 28.7813 84.9228 28.104C84.5334 27.4267 84.3388 26.632 84.3388 25.72V18.496L86.2908 18.48V25.672C86.2908 26.104 86.3628 26.4907 86.5068 26.832C86.6561 27.1733 86.8561 27.464 87.1068 27.704C87.3574 27.9387 87.6454 28.1173 87.9708 28.24C88.2961 28.3627 88.6321 28.424 88.9788 28.424C89.3361 28.424 89.6748 28.3627 89.9948 28.24C90.3201 28.112 90.6081 27.9307 90.8588 27.696C91.1094 27.456 91.3068 27.1653 91.4508 26.824C91.5948 26.4827 91.6667 26.0987 91.6667 25.672V18.48H93.6188V25.72C93.6188 26.632 93.4214 27.4267 93.0268 28.104C92.6374 28.7813 92.0934 29.3067 91.3948 29.68C90.7014 30.0533 89.8961 30.24 88.9788 30.24ZM97.3544 30V18.48H102.114C102.226 18.48 102.37 18.4853 102.546 18.496C102.722 18.5013 102.885 18.5173 103.034 18.544C103.701 18.6453 104.25 18.8667 104.682 19.208C105.12 19.5493 105.442 19.9813 105.65 20.504C105.864 21.0213 105.97 21.5973 105.97 22.232C105.97 23.1707 105.733 23.9787 105.258 24.656C104.784 25.328 104.056 25.744 103.074 25.904L102.25 25.976H99.2824V30H97.3544ZM103.97 30L101.698 25.312L103.658 24.88L106.154 30H103.97ZM99.2824 24.176H102.034C102.141 24.176 102.261 24.1707 102.394 24.16C102.528 24.1493 102.65 24.128 102.762 24.096C103.082 24.016 103.333 23.8747 103.514 23.672C103.701 23.4693 103.832 23.24 103.906 22.984C103.986 22.728 104.026 22.4773 104.026 22.232C104.026 21.9867 103.986 21.736 103.906 21.48C103.832 21.2187 103.701 20.9867 103.514 20.784C103.333 20.5813 103.082 20.44 102.762 20.36C102.65 20.328 102.528 20.3093 102.394 20.304C102.261 20.2933 102.141 20.288 102.034 20.288H99.2824V24.176ZM109.417 30V18.48H116.857V20.288H111.345V23.128H115.897V24.936H111.345V28.192H116.857V30H109.417ZM120.276 30V18.48H123.948C124.044 18.48 124.234 18.4827 124.516 18.488C124.804 18.4933 125.082 18.512 125.348 18.544C126.26 18.6613 127.031 18.9867 127.66 19.52C128.295 20.048 128.775 20.7227 129.1 21.544C129.426 22.3653 129.588 23.264 129.588 24.24C129.588 25.216 129.426 26.1147 129.1 26.936C128.775 27.7573 128.295 28.4347 127.66 28.968C127.031 29.496 126.26 29.8187 125.348 29.936C125.087 29.968 124.812 29.9867 124.524 29.992C124.236 29.9973 124.044 30 123.948 30H120.276ZM122.236 28.184H123.948C124.108 28.184 124.311 28.1787 124.556 28.168C124.807 28.1573 125.028 28.1333 125.22 28.096C125.764 27.9947 126.207 27.752 126.548 27.368C126.89 26.984 127.14 26.5173 127.3 25.968C127.466 25.4187 127.548 24.8427 127.548 24.24C127.548 23.616 127.466 23.0293 127.3 22.48C127.135 21.9307 126.879 21.4693 126.532 21.096C126.191 20.7227 125.754 20.4853 125.22 20.384C125.028 20.3413 124.807 20.3173 124.556 20.312C124.311 20.3013 124.108 20.296 123.948 20.296H122.236V28.184ZM140.115 30L136.747 18.48H138.771L141.067 26.8L143.355 18.496L145.378 18.48L147.675 26.8L149.963 18.48H151.987L148.627 30H146.723L144.363 21.808L142.019 30H140.115ZM159.351 30.24C158.199 30.24 157.213 29.9893 156.391 29.488C155.57 28.9813 154.938 28.2773 154.495 27.376C154.058 26.4747 153.839 25.4293 153.839 24.24C153.839 23.0507 154.058 22.0053 154.495 21.104C154.938 20.2027 155.57 19.5013 156.391 19C157.213 18.4933 158.199 18.24 159.351 18.24C160.503 18.24 161.49 18.4933 162.311 19C163.138 19.5013 163.77 20.2027 164.207 21.104C164.65 22.0053 164.871 23.0507 164.871 24.24C164.871 25.4293 164.65 26.4747 164.207 27.376C163.77 28.2773 163.138 28.9813 162.311 29.488C161.49 29.9893 160.503 30.24 159.351 30.24ZM159.351 28.424C160.125 28.4293 160.767 28.2587 161.279 27.912C161.797 27.5653 162.183 27.0773 162.439 26.448C162.701 25.8187 162.831 25.0827 162.831 24.24C162.831 23.3973 162.701 22.6667 162.439 22.048C162.183 21.424 161.797 20.9387 161.279 20.592C160.767 20.2453 160.125 20.0667 159.351 20.056C158.578 20.0507 157.935 20.2213 157.423 20.568C156.911 20.9147 156.525 21.4027 156.263 22.032C156.007 22.6613 155.879 23.3973 155.879 24.24C155.879 25.0827 156.007 25.816 156.263 26.44C156.519 27.0587 156.903 27.5413 157.415 27.888C157.933 28.2347 158.578 28.4133 159.351 28.424ZM167.964 30V18.48H172.724C172.836 18.48 172.98 18.4853 173.156 18.496C173.332 18.5013 173.494 18.5173 173.644 18.544C174.31 18.6453 174.86 18.8667 175.292 19.208C175.729 19.5493 176.052 19.9813 176.26 20.504C176.473 21.0213 176.58 21.5973 176.58 22.232C176.58 23.1707 176.342 23.9787 175.868 24.656C175.393 25.328 174.665 25.744 173.684 25.904L172.86 25.976H169.892V30H167.964ZM174.58 30L172.308 25.312L174.268 24.88L176.764 30H174.58ZM169.892 24.176H172.644C172.75 24.176 172.87 24.1707 173.004 24.16C173.137 24.1493 173.26 24.128 173.372 24.096C173.692 24.016 173.942 23.8747 174.124 23.672C174.31 23.4693 174.441 23.24 174.516 22.984C174.596 22.728 174.636 22.4773 174.636 22.232C174.636 21.9867 174.596 21.736 174.516 21.48C174.441 21.2187 174.31 20.9867 174.124 20.784C173.942 20.5813 173.692 20.44 173.372 20.36C173.26 20.328 173.137 20.3093 173.004 20.304C172.87 20.2933 172.75 20.288 172.644 20.288H169.892V24.176ZM180.026 30V18.48H181.954V23.824L186.554 18.48H188.922L183.97 24.128L189.258 30H186.81L181.954 24.624V30H180.026Z" fill="#DEDEDE"/>
    </svg>
    </g>>


    <!--    social icons-->
    <g>
        <svg width="21" height="21" viewBox="0 0 21 21" fill="none" xmlns="http://www.w3.org/2000/svg">
            <path id="inst"
                  d="M15.6516 2.09998H5.34844C3.55687 2.09998 2.1 3.55628 2.1 5.34715V8.77799V15.6528C2.1 17.4437 3.55687 18.9 5.34844 18.9H15.6516C17.4431 18.9 18.9 17.4437 18.9 15.6528V8.77143V5.34058C18.8934 3.55628 17.4366 2.09998 15.6516 2.09998ZM16.5834 4.03516H16.9575V4.40251V6.88217L14.1159 6.88873L14.1094 4.04172L16.5834 4.03516ZM8.09812 8.77143C8.63625 8.03016 9.50906 7.53816 10.4934 7.53816C11.4778 7.53816 12.3506 8.0236 12.8887 8.77143C13.2431 9.25687 13.4466 9.85382 13.4466 10.4967C13.4466 12.1236 12.1209 13.4552 10.4869 13.4552C8.85281 13.4552 7.54031 12.1236 7.54031 10.4967C7.54031 9.85382 7.75031 9.25687 8.09812 8.77143ZM17.2594 15.6462C17.2594 16.5318 16.5375 17.2534 15.6516 17.2534H5.34844C4.4625 17.2534 3.74062 16.5318 3.74062 15.6462V8.77143H6.2475C6.03094 9.30279 5.90625 9.88662 5.90625 10.4967C5.90625 13.0288 7.96687 15.0887 10.5 15.0887C13.0331 15.0887 15.0937 13.0288 15.0937 10.4967C15.0937 9.88662 14.9691 9.30279 14.7525 8.77143H17.2594V15.6462Z"
                  fill="#7572D5"/>
        </svg>
    </g>
    <g>
        <svg width="21" height="21" viewBox="0 0 21 21" fill="none" xmlns="http://www.w3.org/2000/svg">
            <path id="tg"
                  d="M18.9057 4.76449L16.3705 16.7208C16.1791 17.5644 15.6804 17.7745 14.9717 17.3772L11.1085 14.5305L9.24472 16.3235C9.0383 16.5299 8.86608 16.7022 8.46824 16.7022L8.74607 12.7681L15.9054 6.29885C16.2169 6.02162 15.8376 5.86741 15.4218 6.14524L6.57084 11.7186L2.76043 10.5257C1.93174 10.2671 1.91674 9.69701 2.93325 9.29917L17.837 3.55716C18.5271 3.29854 19.1308 3.71018 18.9057 4.76449Z"
                  fill="#7572D5"/>
        </svg>
    </g>
    <g>
        <svg width="21" height="21" viewBox="0 0 21 21" fill="none" xmlns="http://www.w3.org/2000/svg">
            <path id="vk"
                  d="M18.1696 13.9941C17.8038 13.5391 17.3881 13.1314 16.9861 12.737C16.8432 12.5968 16.6954 12.4518 16.5529 12.3076C16.1439 11.8932 16.129 11.7375 16.4529 11.2668C16.6769 10.9424 16.9145 10.6175 17.1442 10.3033C17.3526 10.0183 17.568 9.72351 17.7746 9.42777L17.817 9.36697C18.2117 8.80103 18.6199 8.21583 18.8372 7.50988C18.8936 7.32363 18.9528 7.04955 18.8174 6.82036C18.682 6.59137 18.4195 6.52151 18.2337 6.48888C18.1418 6.47273 18.0506 6.47053 17.9659 6.47053L15.3809 6.46861L15.3595 6.46842C14.9687 6.46842 14.7053 6.65927 14.5544 7.05194C14.4103 7.42713 14.252 7.82665 14.0714 8.20653C13.7119 8.96298 13.2554 9.83425 12.5948 10.5609L12.5669 10.5918C12.4889 10.6787 12.4005 10.777 12.3359 10.777C12.326 10.777 12.3152 10.7751 12.303 10.7711C12.1662 10.7159 12.0744 10.3726 12.0785 10.213C12.0786 10.2108 12.0786 10.2086 12.0786 10.2064L12.0768 7.1105C12.0768 7.09976 12.0761 7.08913 12.0747 7.07849C12.009 6.57522 11.8633 6.26195 11.3129 6.15026C11.2983 6.14724 11.2834 6.14575 11.2685 6.14575H8.5806C8.14268 6.14575 7.90138 6.33018 7.67456 6.60623C7.61334 6.68002 7.48589 6.83364 7.54906 7.01998C7.61315 7.20911 7.8212 7.24955 7.88894 7.26268C8.22522 7.32899 8.41477 7.54213 8.46846 7.91453C8.56219 8.56121 8.57371 9.25144 8.50471 10.0868C8.48547 10.3189 8.44742 10.4982 8.38471 10.6514C8.37015 10.6872 8.31849 10.8038 8.26582 10.8039C8.24908 10.8039 8.20067 10.7971 8.11248 10.7341C7.90397 10.5861 7.75142 10.3749 7.57357 10.114C6.96853 9.22796 6.46074 8.25191 6.02097 7.12938C5.85787 6.71615 5.55327 6.48481 5.16289 6.478C4.73395 6.47125 4.34504 6.46799 3.97413 6.46799C3.56886 6.46799 3.19314 6.47187 2.82625 6.47978C2.51217 6.48553 2.29492 6.58308 2.18061 6.76996C2.06611 6.95697 2.07356 7.20264 2.20276 7.50001C3.23702 9.88254 4.17478 11.6149 5.24345 13.1171C5.99225 14.1683 6.74333 14.8959 7.60686 15.4068C8.51664 15.9461 9.5362 16.2083 10.7237 16.2083C10.8583 16.2083 10.9975 16.2048 11.1379 16.198C11.8279 16.1632 12.0839 15.9044 12.1163 15.2082C12.1317 14.8525 12.1692 14.4793 12.338 14.1611C12.4445 13.9606 12.5439 13.9606 12.5765 13.9606C12.6394 13.9606 12.7174 13.9906 12.8011 14.0468C12.9513 14.1484 13.0801 14.2845 13.1857 14.4034C13.285 14.5163 13.3833 14.6304 13.4817 14.7446C13.6939 14.9909 13.9134 15.2456 14.1427 15.4871C14.6445 16.0162 15.1973 16.2488 15.8323 16.1983H18.2023C18.2073 16.1983 18.2124 16.1981 18.2175 16.1978C18.4536 16.1817 18.6582 16.0459 18.7786 15.8254C18.9279 15.5522 18.9249 15.2037 18.7706 14.893C18.5956 14.5415 18.3685 14.2413 18.1696 13.9941Z"
                  fill="#7572D5"/>
        </svg>
    </g>
    <g id="arrowUp">
        <svg width="16.000000" height="15.000000" viewBox="0 0 30 30" fill="none" xmlns="http://www.w3.org/2000/svg">
            <desc>
                Created with Pixso.
            </desc>
            <defs>
                <clipPath id="clip20_2005">
                    <rect id="btn-go-top" width="30.000000" height="30.000000" fill="white" fill-opacity="0"/>
                </clipPath>
            </defs>
            <rect id="btn-go-top" width="30.000000" height="30.000000" fill="#FFFFFF" fill-opacity="0"/>
            <g clip-path="url(#clip20_2005)">
                <rect id="Rectangle 17" width="30.000000" height="30.000000" fill="#000000" fill-opacity="0.300000"/>
                <path id="Vector" d="M13.8 11.28L13.8 22L16.19 22L16.19 11.28L21.31 16.08L23 14.5L15 7L7 14.5L8.68 16.08L13.8 11.28Z" fill="#FFFFFF" fill-opacity="1.000000" fill-rule="nonzero"/>
            </g>
        </svg>
    </g>
</svg>